<svg width="24" height="25" viewBox="0 0 24 25" fill="none" xmlns="http://www.w3.org/2000/svg">
<path d="M7 2.94238H6C3 2.94238 2 4.73238 2 6.94238V7.94238V21.9424C2 22.7724 2.94 23.2424 3.6 22.7424L5.31 21.4624C5.71 21.1624 6.27 21.2024 6.63 21.5624L8.29 23.2324C8.68 23.6224 9.32 23.6224 9.71 23.2324L11.39 21.5524C11.74 21.2024 12.3 21.1624 12.69 21.4624L14.4 22.7424C15.06 23.2324 16 22.7624 16 21.9424V4.94238C16 3.84238 16.9 2.94238 18 2.94238H7ZM11.25 14.6924H6.75C6.34 14.6924 6 14.3524 6 13.9424C6 13.5324 6.34 13.1924 6.75 13.1924H11.25C11.66 13.1924 12 13.5324 12 13.9424C12 14.3524 11.66 14.6924 11.25 14.6924ZM12 10.6924H6C5.59 10.6924 5.25 10.3524 5.25 9.94238C5.25 9.53238 5.59 9.19238 6 9.19238H12C12.41 9.19238 12.75 9.53238 12.75 9.94238C12.75 10.3524 12.41 10.6924 12 10.6924Z" fill="#9F9F9F"/>
<path d="M18.01 2.94238V4.44238C18.67 4.44238 19.3 4.71238 19.76 5.16238C20.24 5.65238 20.5 6.28238 20.5 6.94238V9.36238C20.5 10.1024 20.17 10.4424 19.42 10.4424H17.5V4.95238C17.5 4.67238 17.73 4.44238 18.01 4.44238V2.94238ZM18.01 2.94238C16.9 2.94238 16 3.84238 16 4.95238V11.9424H19.42C21 11.9424 22 10.9424 22 9.36238V6.94238C22 5.84238 21.55 4.84238 20.83 4.11238C20.1 3.39238 19.11 2.95238 18.01 2.94238C18.02 2.94238 18.01 2.94238 18.01 2.94238Z" fill="#9F9F9F"/>
</svg>
